<svg width="167" height="156" viewBox="0 0 167 156" fill="none" xmlns="http://www.w3.org/2000/svg">
<path d="M75.181 32.1058L92.8707 61.7019L75.181 91.2981H48.6466L30.9569 61.7019L48.6466 32.1058H75.181Z" stroke="black" stroke-width="5" stroke-linecap="round" stroke-linejoin="round"/>
<path d="M119.405 2.50961L137.095 32.1058L119.405 61.7019H92.8707L75.181 32.1058L92.8707 2.50961H119.405Z" stroke="black" stroke-width="5" stroke-linecap="round" stroke-linejoin="round"/>
<path d="M119.405 120.894L137.095 150.49" stroke="black" stroke-width="5" stroke-linecap="round" stroke-linejoin="round"/>
<path d="M30.9569 2.50962L48.6466 32.1058" stroke="black" stroke-width="5" stroke-linecap="round" stroke-linejoin="round"/>
<path d="M92.8707 120.894L84.0259 135.692" stroke="black" stroke-width="5" stroke-linecap="round" stroke-linejoin="round"/>
<path d="M48.6466 91.2981L39.8017 106.096" stroke="black" stroke-width="5" stroke-linecap="round" stroke-linejoin="round"/>
<path d="M30.9569 61.7019H22.1121" stroke="black" stroke-width="5" stroke-linecap="round" stroke-linejoin="round"/>
<path d="M137.095 91.2981H163.629" stroke="black" stroke-width="5" stroke-linecap="round" stroke-linejoin="round"/>
<path d="M119.405 61.7019L137.095 91.2981L119.405 120.894H92.8707L75.181 91.2981L92.8707 61.7019H119.405Z" stroke="black" stroke-width="5" stroke-linecap="round" stroke-linejoin="round"/>
<ellipse cx="75.181" cy="150.49" rx="4.42241" ry="4.93269" fill="black"/>
<ellipse cx="30.9569" cy="120.894" rx="4.42241" ry="4.93269" fill="black"/>
<ellipse cx="4.42241" cy="61.7019" rx="4.42241" ry="4.93269" fill="black"/>
</svg>
