<svg width="170" height="162" viewBox="0 0 170 162" fill="none" xmlns="http://www.w3.org/2000/svg">
<ellipse cx="85" cy="81" rx="7.61631" ry="8.06035" fill="#3A2F2F"/>
<path d="M120.582 81C120.582 102.973 116.369 122.744 109.667 136.927C102.875 151.304 93.984 159.103 85 159.103C76.016 159.103 67.125 151.304 60.3327 136.927C53.6315 122.744 49.4185 102.973 49.4185 81C49.4185 59.027 53.6315 39.2565 60.3327 25.0727C67.125 10.6961 76.016 2.89655 85 2.89655C93.984 2.89655 102.875 10.6961 109.667 25.0727C116.369 39.2565 120.582 59.027 120.582 81Z" stroke="#3A2F2F" stroke-width="5"/>
<path d="M102.843 113.706C84.8973 124.672 66.6533 130.681 51.7347 131.628C36.673 132.585 25.752 128.389 21.1741 119.997C16.5961 111.606 18.6226 99.498 26.9364 86.1722C35.1712 72.9729 49.2103 59.2565 67.1565 48.2911C85.1027 37.3258 103.347 31.317 118.265 30.3693C133.327 29.4126 144.248 33.609 148.826 42.0005C153.404 50.392 151.377 62.4996 143.064 75.8254C134.829 89.0247 120.79 102.741 102.843 113.706Z" stroke="#3A2F2F" stroke-width="5"/>
<path d="M102.843 48.292C84.8973 37.3266 66.6533 31.3178 51.7347 30.3702C36.673 29.4134 25.752 33.6099 21.1741 42.0014C16.5961 50.3929 18.6226 62.5004 26.9364 75.8262C35.1712 89.0255 49.2103 102.742 67.1565 113.707C85.1027 124.673 103.347 130.681 118.265 131.629C133.327 132.586 144.248 128.389 148.826 119.998C153.404 111.606 151.377 99.4989 143.064 86.173C134.829 72.9737 120.79 59.2573 102.843 48.292Z" stroke="#3A2F2F" stroke-width="5"/>
</svg>
