<svg width="137" height="137" viewBox="0 0 137 137" fill="none" xmlns="http://www.w3.org/2000/svg">
<path fill-rule="evenodd" clip-rule="evenodd" d="M38.7584 124.272C58.6981 104.285 77.9697 103.344 94.9317 126.684C76.3257 136.091 57.2134 134.64 38.7584 124.272Z" fill="#3A2F2F"/>
<path fill-rule="evenodd" clip-rule="evenodd" d="M63.9419 76.1153H65.3319L67.4554 84.5095L73.493 77.9907L75.2242 79.1719L69.8237 87.7002V107.238H65.3319V87.7002L63.9419 76.1153Z" fill="#3A2F2F"/>
<path d="M68.5008 134.002C104.676 134.002 134.002 104.676 134.002 68.5009C134.002 32.3258 104.676 3 68.5008 3C32.3257 3 3 32.3258 3 68.5009C3 104.676 32.3257 134.002 68.5008 134.002Z" stroke="#3A2F2F" stroke-width="5" stroke-miterlimit="1.5" stroke-linecap="round" stroke-linejoin="round"/>
<path fill-rule="evenodd" clip-rule="evenodd" d="M38.7584 40.5298C41.8133 68.9962 49.6676 82.0289 64.2043 73.5693C78.3989 55.7245 64.1565 46.4467 38.7584 40.5298Z" fill="#3A2F2F"/>
<path fill-rule="evenodd" clip-rule="evenodd" d="M73.5911 76.1153C72.4644 63.962 81.007 58.2965 99.7714 60.4594C94.2786 78.0963 85.0729 83.1464 73.5911 76.1153Z" fill="#3A2F2F"/>
</svg>
