<svg width="44" height="44" viewBox="0 0 44 44" fill="none" xmlns="http://www.w3.org/2000/svg">
<path d="M15.2496 22.4082V11.7959H27.1177C28.4667 11.7959 29.7605 12.355 30.7143 13.3501C31.6682 14.3451 32.2041 15.6948 32.2041 17.1021C32.2041 18.5093 31.6682 19.859 30.7143 20.854C29.7605 21.8491 28.4667 22.4082 27.1177 22.4082H10.1633" stroke="white" stroke-width="3"/>
<path d="M15.0612 25.6735V32.2041H27.0612C28.4252 32.2041 29.7333 31.6881 30.6978 30.7695C31.6622 29.851 32.2041 28.6052 32.2041 27.3061C32.2041 26.0071 31.6622 24.7613 30.6978 23.8428C29.7333 22.9242 28.4252 22.4082 27.0612 22.4082" stroke="white" stroke-width="3"/>
<path d="M22 42C33.0457 42 42 33.0457 42 22C42 10.9543 33.0457 2 22 2C10.9543 2 2 10.9543 2 22C2 33.0457 10.9543 42 22 42Z" stroke="white" stroke-width="3"/>
</svg>
