<svg width="29" height="26" viewBox="0 0 29 26" fill="none" xmlns="http://www.w3.org/2000/svg">
<path d="M12.75 6.25L15.75 10.75L12.75 15.25H8.25L5.25 10.75L8.25 6.25H12.75Z" stroke="white" stroke-width="2" stroke-linecap="round" stroke-linejoin="round"/>
<path d="M20.25 1.75L23.25 6.25L20.25 10.75H15.75L12.75 6.25L15.75 1.75H20.25Z" stroke="white" stroke-width="2" stroke-linecap="round" stroke-linejoin="round"/>
<path d="M20.25 19.75L23.25 24.25" stroke="white" stroke-width="2" stroke-linecap="round" stroke-linejoin="round"/>
<path d="M5.25 1.75L8.25 6.25" stroke="white" stroke-width="2" stroke-linecap="round" stroke-linejoin="round"/>
<path d="M15.75 19.75L14.25 22" stroke="white" stroke-width="2" stroke-linecap="round" stroke-linejoin="round"/>
<path d="M8.25 15.25L6.75 17.5" stroke="white" stroke-width="2" stroke-linecap="round" stroke-linejoin="round"/>
<path d="M5.25 10.75H3.75" stroke="white" stroke-width="2" stroke-linecap="round" stroke-linejoin="round"/>
<path d="M23.25 15.25H27.75" stroke="white" stroke-width="2" stroke-linecap="round" stroke-linejoin="round"/>
<path d="M20.25 10.75L23.25 15.25L20.25 19.75H15.75L12.75 15.25L15.75 10.75H20.25Z" stroke="white" stroke-width="2" stroke-linecap="round" stroke-linejoin="round"/>
<circle cx="12.75" cy="24.25" r="0.75" fill="white"/>
<circle cx="5.25" cy="19.75" r="0.75" fill="white"/>
<circle cx="0.75" cy="10.75" r="0.75" fill="white"/>
</svg>
