<svg width="23" height="27" viewBox="0 0 23 27" fill="none" xmlns="http://www.w3.org/2000/svg">
<path fill-rule="evenodd" clip-rule="evenodd" d="M0.571 8.45503C0.125 9.42473 0.125 10.5279 0.125 12.7343V19.6249C0.125 22.689 0.125 24.2211 1.0769 25.173C1.95478 26.0509 3.3261 26.1191 5.9375 26.1245V18C5.9375 16.2741 7.33661 14.875 9.0625 14.875H13.9375C15.6634 14.875 17.0625 16.2741 17.0625 18V26.1245C19.6739 26.1191 21.0452 26.0509 21.9231 25.173C22.875 24.2211 22.875 22.689 22.875 19.6249V12.7343C22.875 10.5279 22.875 9.42473 22.429 8.45503C21.983 7.48533 21.1454 6.76739 19.4702 5.33151L17.8452 3.93866C14.8173 1.34332 13.3034 0.0456543 11.5 0.0456543C9.69662 0.0456543 8.18268 1.34332 5.15479 3.93865L5.15478 3.93866L3.52978 5.33151C1.85459 6.76739 1.017 7.48533 0.571 8.45503ZM14.0625 26.1249V18C14.0625 17.931 14.0065 17.875 13.9375 17.875H9.0625C8.99346 17.875 8.9375 17.931 8.9375 18V26.1249H14.0625Z" fill="white"/>
</svg>
