<svg width="31" height="29" viewBox="0 0 31 29" fill="none" xmlns="http://www.w3.org/2000/svg">
<circle cx="15.5" cy="14.5" r="1.375" fill="white"/>
<path d="M21.375 14.5C21.375 18.1754 20.628 21.4534 19.4669 23.7755C18.276 26.1575 16.8157 27.25 15.5 27.25C14.1843 27.25 12.724 26.1575 11.5331 23.7755C10.372 21.4534 9.625 18.1754 9.625 14.5C9.625 10.8246 10.372 7.54664 11.5331 5.2245C12.724 2.84254 14.1843 1.75 15.5 1.75C16.8157 1.75 18.276 2.84254 19.4669 5.2245C20.628 7.54664 21.375 10.8246 21.375 14.5Z" stroke="white" stroke-width="2"/>
<path d="M18.4375 19.5877C15.2545 21.4254 12.0422 22.4175 9.45063 22.573C6.79231 22.7326 5.11599 22.0142 4.45816 20.8748C3.80034 19.7354 4.01635 17.9245 5.4837 15.7021C6.9142 13.5355 9.37952 11.2496 12.5625 9.41189C15.7455 7.57421 18.9578 6.58213 21.5493 6.42658C24.2077 6.26702 25.884 6.98541 26.5418 8.12479C27.1996 9.26418 26.9836 11.0751 25.5163 13.2975C24.0858 15.4641 21.6205 17.75 18.4375 19.5877Z" stroke="white" stroke-width="2"/>
<path d="M18.4375 9.41203C15.2545 7.57435 12.0422 6.58227 9.45063 6.42672C6.79231 6.26716 5.11599 6.98555 4.45816 8.12493C3.80034 9.26432 4.01635 11.0752 5.4837 13.2976C6.9142 15.4642 9.37952 17.7501 12.5625 19.5878C15.7455 21.4255 18.9578 22.4176 21.5493 22.5731C24.2077 22.7327 25.884 22.0143 26.5418 20.8749C27.1996 19.7355 26.9836 17.9246 25.5163 15.7022C24.0858 13.5356 21.6205 11.2497 18.4375 9.41203Z" stroke="white" stroke-width="2"/>
</svg>
